<svg width="24" height="24" viewBox="0 0 24 24" fill="none" xmlns="http://www.w3.org/2000/svg">
<path fill-rule="evenodd" clip-rule="evenodd" d="M5.88201 5.15099L12 11.27L18.117 5.15199C18.297 4.97299 18.576 4.95299 18.777 5.09199L18.849 5.15199C19.028 5.33199 19.048 5.60999 18.909 5.81199L18.849 5.88299L12.73 12L18.848 18.117C18.8961 18.1651 18.9342 18.2221 18.9602 18.2849C18.9862 18.3477 18.9996 18.415 18.9996 18.483C18.9996 18.551 18.9862 18.6183 18.9602 18.6811C18.9342 18.7439 18.8961 18.8009 18.848 18.849C18.7999 18.8971 18.7429 18.9352 18.6801 18.9612C18.6173 18.9872 18.55 19.0006 18.482 19.0006C18.414 19.0006 18.3467 18.9872 18.2839 18.9612C18.2211 18.9352 18.1641 18.8971 18.116 18.849L12 12.73L5.88201 18.848C5.70301 19.027 5.42401 19.047 5.22301 18.908L5.15101 18.848C5.06528 18.7624 5.01232 18.6495 5.00135 18.5289C4.99039 18.4082 5.02212 18.2876 5.09101 18.188L5.15101 18.116L11.27 12L5.15101 5.88199C5.09971 5.83477 5.05849 5.77766 5.02983 5.7141C5.00117 5.65054 4.98566 5.58183 4.98424 5.51212C4.98282 5.44241 4.99551 5.37313 5.02156 5.30845C5.04761 5.24377 5.08647 5.18503 5.13581 5.13576C5.18514 5.08649 5.24394 5.04771 5.30865 5.02175C5.37336 4.9958 5.44266 4.9832 5.51237 4.98471C5.58208 4.98623 5.65076 5.00183 5.71429 5.03057C5.77781 5.05932 5.83486 5.10062 5.88201 5.15199V5.15099Z" fill="#333333"/>
</svg>
