<svg width="24" height="24" viewBox="0 0 24 24" fill="none" xmlns="http://www.w3.org/2000/svg">
<path fill-rule="evenodd" clip-rule="evenodd" d="M2.5 7C2.36739 7 2.24021 6.94732 2.14645 6.85355C2.05268 6.75979 2 6.63261 2 6.5C2 6.36739 2.05268 6.24021 2.14645 6.14645C2.24021 6.05268 2.36739 6 2.5 6H21.5C21.6326 6 21.7598 6.05268 21.8536 6.14645C21.9473 6.24021 22 6.36739 22 6.5C22 6.63261 21.9473 6.75979 21.8536 6.85355C21.7598 6.94732 21.6326 7 21.5 7H2.5ZM2.5 13C2.36739 13 2.24021 12.9473 2.14645 12.8536C2.05268 12.7598 2 12.6326 2 12.5C2 12.3674 2.05268 12.2402 2.14645 12.1464C2.24021 12.0527 2.36739 12 2.5 12H21.5C21.6326 12 21.7598 12.0527 21.8536 12.1464C21.9473 12.2402 22 12.3674 22 12.5C22 12.6326 21.9473 12.7598 21.8536 12.8536C21.7598 12.9473 21.6326 13 21.5 13H2.5ZM2.5 19C2.36739 19 2.24021 18.9473 2.14645 18.8536C2.05268 18.7598 2 18.6326 2 18.5C2 18.3674 2.05268 18.2402 2.14645 18.1464C2.24021 18.0527 2.36739 18 2.5 18H21.5C21.6326 18 21.7598 18.0527 21.8536 18.1464C21.9473 18.2402 22 18.3674 22 18.5C22 18.6326 21.9473 18.7598 21.8536 18.8536C21.7598 18.9473 21.6326 19 21.5 19H2.5Z" fill="#333333"/>
</svg>
